<svg width="1440" height="840" viewBox="0 0 1440 840" fill="none" xmlns="http://www.w3.org/2000/svg">
<g clip-path="url(#clip0_316_2316)">
<rect width="1440" height="840" fill="#121214"/>
<g clip-path="url(#clip1_316_2316)">
<g opacity="0.2" filter="url(#filter0_f_316_2316)">
<ellipse cx="1226.5" cy="358.45" rx="395.5" ry="206.45" fill="#373D98"/>
</g>
<g opacity="0.2" filter="url(#filter1_f_316_2316)">
<ellipse cx="76.5" cy="116.45" rx="395.5" ry="206.45" fill="#35875D"/>
</g>
<path d="M843.104 -9.26886C793.545 78.6728 739.651 110.515 694.812 120.985C611.018 140.553 555.163 86.3227 474.123 107.771C400.33 127.295 388.167 190.299 337.883 237.398C278.262 293.249 156.532 338.63 -119.758 277.031M914.077 -25.6061C860.131 86.7008 798.277 126.161 746.539 138.716C652.169 161.525 588.193 96.9979 495.799 123.708C414.073 147.057 403.147 216.134 341.014 270.98C273.812 330.31 148.227 375.723 -119.771 318.586M985.061 -41.9432C926.741 94.7397 856.926 141.806 798.29 156.458C693.343 182.508 621.342 107.922 517.51 139.645C427.923 167.025 418.277 242.055 344.169 304.572C269.549 367.522 139.935 412.827 -119.749 360.153M1056.05 -58.2802C993.35 102.779 915.564 157.452 850.04 174.189C734.528 203.492 654.419 118.651 539.21 155.572C441.713 186.82 433.478 268.041 347.324 338.143C261.169 408.246 131.653 449.91 -119.727 401.687M1127.03 -74.6174C1059.95 110.818 974.201 173.108 901.779 191.92C775.69 224.464 687.484 129.359 560.909 171.509C455.503 206.604 448.737 294.102 350.479 371.725C261.314 442.163 123.361 487.003 -119.705 443.243M1198 -90.9544C1126.55 118.857 1032.83 188.754 953.518 209.651C816.864 245.437 720.537 140.056 582.597 187.436C469.269 226.366 464.043 320.196 353.622 405.296C257.249 479.57 115.068 524.086 -119.707 484.789M1268.99 -107.292C1193.16 126.895 1091.47 204.4 1005.27 227.382C858.038 266.409 753.591 150.731 604.308 203.373C483.059 246.128 479.396 346.355 356.777 438.889C253.231 517.02 106.775 561.19 -119.685 526.355M1339.97 -123.629C1259.75 134.934 1150.11 220.045 1057.01 245.123C899.2 287.403 786.632 161.406 625.996 219.31C496.813 265.88 494.772 372.546 359.92 472.471C249.225 554.491 98.471 598.284 -119.675 567.911M1410.96 -139.966C1326.36 142.962 1208.75 235.691 1108.76 262.854C940.385 308.376 819.685 172.06 647.707 235.248C510.591 285.62 510.183 398.77 363.086 506.053C245.254 591.995 90.2012 635.377 -119.653 609.456M1481.93 -156.303C1392.96 151.001 1267.38 251.336 1160.5 280.585C981.548 329.348 852.572 182.368 669.394 251.174C524.227 305.08 525.583 425.015 366.218 539.634C241.259 629.499 81.8855 672.471 -119.654 651.012M1552.91 -172.64C1459.56 159.04 1326.02 266.982 1212.24 298.316C1022.71 350.331 885.614 193.033 691.094 267.111C537.993 324.842 541.03 451.293 369.373 573.216C237.3 667.025 73.6043 709.564 -119.633 692.568M1623.9 -188.977C1526.17 167.079 1384.65 282.627 1263.99 316.047C1063.89 371.304 918.667 203.697 712.793 283.038C551.759 344.583 556.476 477.582 372.527 606.787C233.34 704.551 65.3113 746.647 -119.623 734.113M1694.87 -205.314C1592.76 175.118 1443.29 298.273 1315.72 333.789C1105.06 392.287 951.709 214.383 734.493 298.986C565.526 364.356 571.935 503.902 375.682 640.38C229.393 742.109 57.0301 783.751 -119.601 775.669M1765.85 -221.651C1659.36 183.157 1501.93 313.919 1367.46 351.52C1146.23 413.26 984.75 225.048 756.181 314.913C579.28 384.097 587.405 530.223 378.814 673.962C225.434 779.667 48.7146 820.845 -119.602 817.225M1836.84 -237.989C1725.97 191.196 1560.57 329.564 1419.21 369.251C1187.41 434.243 1017.8 235.723 777.892 330.85C593.07 403.859 602.898 556.566 381.98 707.544C221.498 817.225 40.4448 857.938 -119.569 858.781M1907.82 -254.326C1792.58 199.224 1619.2 345.221 1470.96 386.982C1228.58 455.215 1050.86 246.388 799.591 346.777C606.836 423.6 618.638 583.243 385.135 741.115C217.749 855.021 32.1517 895.021 -119.559 900.326M1978.79 -270.663C1859.17 207.263 1677.83 360.866 1522.69 404.713C1269.74 476.188 1083.89 257.052 821.279 362.714C620.591 443.362 634.003 609.446 388.266 774.708C213.697 892.482 23.836 932.125 -119.56 941.893M2049.78 -287C1925.78 215.302 1736.48 376.512 1574.44 422.455C1310.91 497.171 1116.93 267.738 842.978 378.651C634.357 463.125 649.368 635.647 391.421 808.289C209.679 929.943 15.555 969.219 -119.538 983.438" stroke="url(#paint0_linear_316_2316)" stroke-miterlimit="10"/>
</g>
</g>
<defs>
<filter id="filter0_f_316_2316" x="594.945" y="-84.0554" width="1263.11" height="885.012" filterUnits="userSpaceOnUse" color-interpolation-filters="sRGB">
<feFlood flood-opacity="0" result="BackgroundImageFix"/>
<feBlend mode="normal" in="SourceGraphic" in2="BackgroundImageFix" result="shape"/>
<feGaussianBlur stdDeviation="118.028" result="effect1_foregroundBlur_316_2316"/>
</filter>
<filter id="filter1_f_316_2316" x="-555.055" y="-326.055" width="1263.11" height="885.012" filterUnits="userSpaceOnUse" color-interpolation-filters="sRGB">
<feFlood flood-opacity="0" result="BackgroundImageFix"/>
<feBlend mode="normal" in="SourceGraphic" in2="BackgroundImageFix" result="shape"/>
<feGaussianBlur stdDeviation="118.028" result="effect1_foregroundBlur_316_2316"/>
</filter>
<linearGradient id="paint0_linear_316_2316" x1="1390.4" y1="89.5942" x2="167.101" y2="478.594" gradientUnits="userSpaceOnUse">
<stop stop-color="#20234F"/>
<stop offset="1" stop-color="#20234F" stop-opacity="0"/>
</linearGradient>
<clipPath id="clip0_316_2316">
<rect width="1440" height="840" fill="white"/>
</clipPath>
<clipPath id="clip1_316_2316">
<rect width="1440" height="840" fill="white"/>
</clipPath>
</defs>
</svg>
    